<?xml version="1.0" encoding="UTF-8"?>
<svg version="1.1" xmlns="http://www.w3.org/2000/svg" width="240" height="240">
<path d="M0 0 C79.2 0 158.4 0 240 0 C240 79.2 240 158.4 240 240 C160.8 240 81.6 240 0 240 C0 160.8 0 81.6 0 0 Z " fill="#066DB9" transform="translate(0,0)"/>
<path d="M0 0 C0.19335938 0.81984375 0.38671875 1.6396875 0.5859375 2.484375 C0.84632813 3.56203125 1.10671875 4.6396875 1.375 5.75 C1.63023437 6.81734375 1.88546875 7.8846875 2.1484375 8.984375 C2.87924865 11.57238513 3.75503549 13.63975477 5 16 C6.1625535 20.99898007 6.10198349 25.90082549 6 31 C6.66 31 7.32 31 8 31 C8 77.86 8 124.72 8 173 C-71.2 173 -150.4 173 -232 173 C-232 126.8 -232 80.6 -232 33 C-231.34 33 -230.68 33 -230 33 C-230.04640625 32.46375 -230.0928125 31.9275 -230.140625 31.375 C-230.41014373 25.52259331 -229.579558 20.27557183 -228.1875 14.625 C-228.02217773 13.93535156 -227.85685547 13.24570313 -227.68652344 12.53515625 C-226.71351067 8.78969843 -225.72141425 5.80579919 -223 3 C-220.625 2.4375 -220.625 2.4375 -218 3 C-214.09293885 6.4765133 -211.19442211 10.38382766 -208.375 14.75 C-207.94606445 15.40411865 -207.51712891 16.0582373 -207.07519531 16.73217773 C-205.71054271 18.81744794 -204.3548705 20.90836395 -203 23 C-202.13306022 24.32958864 -201.2658747 25.65901708 -200.3984375 26.98828125 C-193.45255147 37.65826754 -186.63289422 48.40922183 -179.80712891 59.15625 C-178.01251801 61.98030129 -176.21567158 64.80291608 -174.41796875 67.625 C-163.73146658 84.40107483 -153.10700309 101.2137448 -142.57324219 118.08618164 C-138.66846254 124.33813214 -134.75042104 130.58137278 -130.8125 136.8125 C-130.33780273 137.5645874 -129.86310547 138.3166748 -129.37402344 139.09155273 C-126.79210573 143.17870911 -124.1971471 147.25711113 -121.58984375 151.328125 C-121.03127686 152.20364014 -120.47270996 153.07915527 -119.8972168 153.98120117 C-118.82039397 155.66865452 -117.73997313 157.35381867 -116.65551758 159.03637695 C-116.17622803 159.78878662 -115.69693848 160.54119629 -115.203125 161.31640625 C-114.77676758 161.98099854 -114.35041016 162.64559082 -113.91113281 163.33032227 C-113 165 -113 165 -113 167 C-112.34 167 -111.68 167 -111 167 C-110.72091797 166.26442871 -110.44183594 165.52885742 -110.15429688 164.77099609 C-109.10170153 162.2441439 -107.93442626 160.00884389 -106.53125 157.6640625 C-105.80651489 156.45121582 -105.80651489 156.45121582 -105.06713867 155.21386719 C-104.54998291 154.35954102 -104.03282715 153.50521484 -103.5 152.625 C-102.96028564 151.72942383 -102.42057129 150.83384766 -101.86450195 149.91113281 C-98.38187989 144.17191118 -94.76804863 138.55040585 -90.99755859 132.99755859 C-85.01621248 124.14178467 -79.46947554 115.00336169 -73.82666016 105.93017578 C-69.72819045 99.35575271 -65.57743268 92.81425237 -61.43408203 86.26806641 C-60.004446 84.00703156 -58.5779033 81.74407564 -57.15234375 79.48046875 C-51.38234638 70.32146397 -45.57840487 61.1844549 -39.75 52.0625 C-39.10063477 51.04462402 -38.45126953 50.02674805 -37.78222656 48.97802734 C-35.86374922 45.97949305 -33.93353173 42.98884521 -32 40 C-31.29939453 38.9054248 -30.59878906 37.81084961 -29.87695312 36.68310547 C-29.18021484 35.6107666 -28.48347656 34.53842773 -27.765625 33.43359375 C-26.82638184 31.9784436 -26.82638184 31.9784436 -25.86816406 30.49389648 C-24.06225668 28.08310926 -22.58025338 26.53375992 -20 25 C-19.01 25 -18.02 25 -17 25 C-17.22171875 24.42636719 -17.4434375 23.85273437 -17.671875 23.26171875 C-18 21 -18 21 -16.890625 18.89453125 C-16.34921875 18.20746094 -15.8078125 17.52039063 -15.25 16.8125 C-14.71890625 16.11769531 -14.1878125 15.42289063 -13.640625 14.70703125 C-12 13 -12 13 -9 12 C-8.9175 11.05125 -8.835 10.1025 -8.75 9.125 C-8.37875 7.578125 -8.37875 7.578125 -8 6 C-6 4.8125 -6 4.8125 -4 4 C-3.67 3.01 -3.34 2.02 -3 1 C-1 0 -1 0 0 0 Z " fill="#740C61" transform="translate(232,67)"/>
<path d="M0 0 C3.15514537 2.91333551 5.24498397 5.81903374 7.35546875 9.55078125 C8.28178101 11.1752417 8.28178101 11.1752417 9.22680664 12.83251953 C9.87383545 13.98091309 10.52086426 15.12930664 11.1875 16.3125 C12.20577529 18.1024258 13.22649935 19.89093885 14.2474823 21.67932129 C15.24197242 23.42147009 16.23476961 25.16458494 17.22753906 26.90771484 C19.29266188 30.51058614 21.41104649 34.07307203 23.5625 37.625 C27.27439787 43.75353922 30.8946785 49.93320863 34.5 56.125 C35.08990723 57.13780029 35.67981445 58.15060059 36.28759766 59.1940918 C37.53565644 61.33690713 38.78370293 63.47972962 40.03173828 65.62255859 C52.25618256 86.59911059 64.59699984 107.50027307 77.18841553 128.25942993 C78.25447285 130.0181266 79.31870661 131.77791289 80.38232422 133.53808594 C81.72784275 135.76367397 83.07699047 137.98707293 84.43017578 140.20800781 C85.02942871 141.20026367 85.62868164 142.19251953 86.24609375 143.21484375 C86.77904053 144.09261475 87.3119873 144.97038574 87.86108398 145.87475586 C89 148 89 148 89 150 C89.66 150 90.32 150 91 150 C91.27368408 149.27522461 91.54736816 148.55044922 91.8293457 147.80371094 C92.95982625 145.09621593 94.24830165 142.67012392 95.73046875 140.140625 C96.27832031 139.20283203 96.82617188 138.26503906 97.390625 137.29882812 C97.98359375 136.29271484 98.5765625 135.28660156 99.1875 134.25 C99.80753906 133.19232422 100.42757812 132.13464844 101.06640625 131.04492188 C106.11915826 122.44611197 111.25116087 113.89562518 116.39575195 105.3515625 C122.40632924 95.35641039 128.27599933 85.2819268 134.13720703 75.19873047 C138.2258225 68.17788645 142.34112069 61.17263059 146.45239258 54.16503906 C147.17139468 52.9394578 147.89038879 51.71387184 148.609375 50.48828125 C148.96754807 49.87777924 149.32572113 49.26727722 149.69474792 48.63827515 C151.94347785 44.80435538 154.18863767 40.96836817 156.43110657 37.13078308 C157.94409557 34.5417083 159.45815491 31.95326013 160.97225952 29.36483765 C161.68325418 28.14869347 162.3937478 26.9322562 163.10366821 25.71548462 C165.38750175 21.80137367 167.69117155 17.89940563 170 14 C170.35406921 13.39043457 170.70813843 12.78086914 171.07293701 12.15283203 C172.14136365 10.31446855 173.22356404 8.48485061 174.30859375 6.65625 C174.94466553 5.57150391 175.5807373 4.48675781 176.23608398 3.36914062 C177.10922241 2.19641602 177.10922241 2.19641602 178 1 C178.99 1 179.98 1 181 1 C183.69707777 7.15229292 186.38354019 13.30914086 189.06274414 19.46923828 C189.97502986 21.56339655 190.8897221 23.65650821 191.80688477 25.74853516 C193.12633299 28.75930861 194.43702258 31.77376525 195.74609375 34.7890625 C196.15653427 35.72054108 196.56697479 36.65201965 196.98985291 37.61172485 C200.74290098 46.30024805 200.74290098 46.30024805 201 51 C199.47265625 53.76953125 199.47265625 53.76953125 197.0625 56.8125 C192.02442095 63.42100895 187.51037719 70.2949249 183.0625 77.3125 C182.36777588 78.4053833 181.67305176 79.4982666 180.95727539 80.62426758 C179.59068456 82.77456527 178.22485816 84.92534901 176.85986328 87.07666016 C174.42826506 90.89865506 171.96829391 94.70164343 169.5 98.5 C155.67721872 119.81187977 142.07246918 141.26220074 128.625 162.8125 C122.03884687 173.36716788 115.37145543 183.86831065 108.68310547 194.35839844 C105.90772721 198.71430107 103.13878661 203.07423447 100.375 207.4375 C99.8900708 208.2003833 99.4051416 208.9632666 98.90551758 209.74926758 C96.14977384 214.10461809 93.5226541 218.50541206 91 223 C90.34 223 89.68 223 89 223 C87.28441044 220.42661565 85.69072509 217.85079045 84.125 215.1875 C83.12761362 213.52265107 82.12887178 211.85861358 81.12890625 210.1953125 C80.35377686 208.90222168 80.35377686 208.90222168 79.56298828 207.58300781 C77.1174312 203.54145924 74.59377545 199.55073534 72.0625 195.5625 C71.56443848 194.77641357 71.06637695 193.99032715 70.55322266 193.18041992 C69.54126905 191.58372053 68.52889926 189.98728483 67.51611328 188.39111328 C65.00512831 184.43095437 62.50299247 180.46521334 60 176.5 C59.00004287 174.91663959 58.00004286 173.33330626 57 171.75 C39 143.25 39 143.25 37.50097656 140.87646484 C36.49781927 139.28818685 35.49456357 137.69997101 34.49121094 136.11181641 C32.03871939 132.22963196 29.58777054 128.34649437 27.140625 124.4609375 C24.10087221 119.6361054 21.05216893 114.81698562 18 110 C17.41798828 109.08041504 16.83597656 108.16083008 16.23632812 107.21337891 C8.0348092 94.2710349 -0.31330532 81.43571399 -8.8125 68.6875 C-9.25078125 68.02962494 -9.6890625 67.37174988 -10.140625 66.69393921 C-11.39028532 64.81959576 -12.64191771 62.94658958 -13.89453125 61.07421875 C-14.61487549 59.99744873 -15.33521973 58.92067871 -16.07739258 57.8112793 C-17.87322674 55.0479618 -17.87322674 55.0479618 -19.8190918 52.99536133 C-21 51 -21 51 -20.85595703 48.16381836 C-19.92892247 44.73728073 -18.7289343 41.63111422 -17.3046875 38.37890625 C-17.03610428 37.76116837 -16.76752106 37.14343048 -16.49079895 36.50697327 C-15.62563363 34.52244063 -14.75065962 32.54242157 -13.875 30.5625 C-13.2806191 29.20573577 -12.68662545 27.84880184 -12.09301758 26.49169922 C-8.19358954 17.59986889 -4.21926121 8.74537778 0 0 Z " fill="#FAFAFB" transform="translate(30,11)"/>
<path d="M0 0 C0.19335938 0.81984375 0.38671875 1.6396875 0.5859375 2.484375 C0.84632813 3.56203125 1.10671875 4.6396875 1.375 5.75 C1.63023437 6.81734375 1.88546875 7.8846875 2.1484375 8.984375 C2.87924865 11.57238513 3.75503549 13.63975477 5 16 C6.1625535 20.99898007 6.10198349 25.90082549 6 31 C6.66 31 7.32 31 8 31 C8 77.86 8 124.72 8 173 C-34.24 173 -76.48 173 -120 173 C-120.33 172.01 -120.66 171.02 -121 170 C-121.99 169.34 -122.98 168.68 -124 168 C-124.6875 165.375 -124.6875 165.375 -125 163 C-125.66 163 -126.32 163 -127 163 C-127.33 162.01 -127.66 161.02 -128 160 C-127.34 159.67 -126.68 159.34 -126 159 C-123 163.75 -123 163.75 -123 166 C-121.7315625 166.185625 -121.7315625 166.185625 -120.4375 166.375 C-116.84763202 167.02770327 -113.49175125 167.95247463 -110 169 C-109.67 168.34 -109.34 167.68 -109 167 C-107.02 167.66 -105.04 168.32 -103 169 C-102.814375 168.21625 -102.62875 167.4325 -102.4375 166.625 C-100.83675497 162.58833863 -98.71000066 159.64416757 -96.17578125 156.14453125 C-93.53860467 152.33317192 -91.14383438 148.40460616 -88.75 144.4375 C-84.68067469 137.70955813 -80.50184759 131.07027626 -76.20727539 124.48413086 C-72.15120549 118.25741006 -68.18107677 111.97857695 -64.23461914 105.68188477 C-61.81360354 101.82929753 -59.35208455 98.01399155 -56.8125 94.23828125 C-54.83257703 91.28555634 -52.97586539 88.33330331 -51.3125 85.1875 C-49.7558822 82.25078807 -48.16163019 79.53806184 -46 77 C-45.34 77 -44.68 77 -44 77 C-43.34 74.69 -42.68 72.38 -42 70 C-42.66 70 -43.32 70 -44 70 C-44.0928125 71.051875 -44.0928125 71.051875 -44.1875 72.125 C-45.33657757 76.19096679 -46.96468987 78.03367419 -50 81 C-52.8125 81.375 -52.8125 81.375 -55 81 C-54.46375 80.195625 -53.9275 79.39125 -53.375 78.5625 C-53.01277344 78.01851563 -52.65054688 77.47453125 -52.27734375 76.9140625 C-51.35521656 75.53228169 -50.43040087 74.15229373 -49.50390625 72.7734375 C-48.98699219 72.00257813 -48.47007812 71.23171875 -47.9375 70.4375 C-47.42574219 69.674375 -46.91398437 68.91125 -46.38671875 68.125 C-45.28239947 66.43274736 -44.25254938 64.69196141 -43.25 62.9375 C-42.8375 62.298125 -42.425 61.65875 -42 61 C-41.34 61 -40.68 61 -40 61 C-40.33 60.01 -40.66 59.02 -41 58 C-39.8125 56.25 -39.8125 56.25 -38 54 C-37.36584144 52.79644802 -36.7414284 51.58772852 -36.125 50.375 C-33.90849898 46.85467486 -32.93981527 45.98495382 -29 45 C-29.2475 44.443125 -29.495 43.88625 -29.75 43.3125 C-30 41 -30 41 -28.1875 38.5625 C-27.465625 37.716875 -26.74375 36.87125 -26 36 C-25.29788106 34.34795544 -24.63028587 32.68076231 -24 31 C-21.61403509 26.22807018 -21.61403509 26.22807018 -18.8125 25.1875 C-18.214375 25.125625 -17.61625 25.06375 -17 25 C-17.22171875 24.42636719 -17.4434375 23.85273437 -17.671875 23.26171875 C-18 21 -18 21 -16.890625 18.89453125 C-16.34921875 18.20746094 -15.8078125 17.52039063 -15.25 16.8125 C-14.71890625 16.11769531 -14.1878125 15.42289063 -13.640625 14.70703125 C-12 13 -12 13 -9 12 C-8.9175 11.05125 -8.835 10.1025 -8.75 9.125 C-8.37875 7.578125 -8.37875 7.578125 -8 6 C-6 4.8125 -6 4.8125 -4 4 C-3.67 3.01 -3.34 2.02 -3 1 C-1 0 -1 0 0 0 Z " fill="#850D69" transform="translate(232,67)"/>
<path d="M0 0 C79.2 0 158.4 0 240 0 C240 32.34 240 64.68 240 98 C239.34 98 238.68 98 238 98 C237.95101562 97.20335938 237.90203125 96.40671875 237.8515625 95.5859375 C237.29970605 87.61842686 237.29970605 87.61842686 235 80 C234.67 80 234.34 80 234 80 C233.01 76.04 232.02 72.08 231 68 C226.27993917 71.48874061 224.8028322 73.35112576 223 79 C221.37064759 80.37868281 219.70250393 81.71274093 218 83 C215.49202349 86.45927795 215 87.61253376 215 92 C212.03 93.485 212.03 93.485 209 95 C210.41379216 91.08080972 212.26921349 87.85688186 214.58984375 84.40234375 C215.29173828 83.35369141 215.99363281 82.30503906 216.71679688 81.22460938 C217.44962891 80.13986328 218.18246094 79.05511719 218.9375 77.9375 C219.66646484 76.84888672 220.39542969 75.76027344 221.14648438 74.63867188 C226.79719966 66.22216193 226.79719966 66.22216193 228.79516602 64.03344727 C230.24019971 62.00772198 230.24019971 62.00772198 229.92163086 59.30883789 C228.73140839 55.03570274 227.06158229 51.10320481 225.25390625 47.05859375 C224.88273178 46.21329605 224.51155731 45.36799835 224.12913513 44.49708557 C222.94664685 41.80768732 221.75485866 39.12253468 220.5625 36.4375 C219.37581048 33.74800748 218.19101802 31.05768595 217.00657654 28.36720276 C216.27043262 26.69694108 215.53260331 25.02742091 214.79286194 23.35874939 C213.12719178 19.5967855 211.49064649 15.83590468 210 12 C207.17464478 14.52298324 205.47911315 17.35196508 203.5859375 20.6171875 C203.25933136 21.17733551 202.93272522 21.73748352 202.59622192 22.31460571 C201.51819822 24.16561655 200.44667794 26.02030919 199.375 27.875 C198.61442462 29.18322906 197.85334845 30.49116709 197.09179688 31.79882812 C195.50944731 34.51677831 193.92926439 37.23597068 192.35058594 39.95605469 C189.1002214 45.552773 185.8238012 51.13416328 182.54730225 56.71560669 C180.78555991 59.71726285 179.02565188 62.71999402 177.265625 65.72265625 C176.91575531 66.31946701 176.56588562 66.91627777 176.20541382 67.53117371 C173.6723783 71.85221505 171.14071211 76.17405729 168.609375 80.49609375 C156.92544499 100.44392569 145.21572069 120.37413564 133.28662109 140.17675781 C132.69961426 141.15225586 132.11260742 142.12775391 131.5078125 143.1328125 C130.93321289 144.08575195 130.35861328 145.03869141 129.76660156 146.02050781 C128.51173831 148.13691896 127.28180252 150.26819797 126.06933594 152.40917969 C125.44575195 153.50907227 124.82216797 154.60896484 124.1796875 155.7421875 C123.61749512 156.74878418 123.05530273 157.75538086 122.47607422 158.79248047 C121.74541748 159.88520264 121.74541748 159.88520264 121 161 C120.34 161 119.68 161 119 161 C117.72000912 159.11354765 116.53971517 157.1593127 115.40234375 155.18359375 C114.87722954 154.27910995 114.87722954 154.27910995 114.34150696 153.35635376 C113.20009239 151.38721843 112.06892859 149.41238691 110.9375 147.4375 C110.15480809 146.0840698 109.37127867 144.7311236 108.58691406 143.37866211 C107.05723637 140.7405284 105.53031042 138.10083602 104.00537109 135.45996094 C101.7901584 131.63795043 99.53913163 127.84054307 97.25 124.0625 C88.62640977 109.76116429 80.19429013 95.34517692 71.75 80.9375 C71.39367493 80.32956604 71.03734985 79.72163208 70.67022705 79.09527588 C67.02466852 72.87493533 63.38120953 66.65337664 59.74330139 60.42855835 C50.26976769 44.21978673 40.70026682 28.07442231 31 12 C29.00943562 14.98584657 27.63452574 17.87067412 26.171875 21.14453125 C25.90038635 21.75076828 25.62889771 22.35700531 25.34918213 22.98161316 C24.77300706 24.26963879 24.19814917 25.55825432 23.62451172 26.84741211 C22.76948409 28.7687179 21.91053655 30.68822777 21.05078125 32.60742188 C19.92069151 35.13262132 18.79993255 37.66168144 17.68554688 40.19384766 C16.54996595 42.77313666 15.38662092 45.33745947 14.20507812 47.89599609 C13.64163374 49.14277112 13.07847162 50.38967375 12.515625 51.63671875 C11.75427246 53.29320435 11.75427246 53.29320435 10.97753906 54.9831543 C9.91686016 58.25658316 9.92129603 59.7746439 11 63 C12.60352434 65.72024336 12.60352434 65.72024336 14.5625 68.3125 C15.20316406 69.19550781 15.84382812 70.07851562 16.50390625 70.98828125 C17.24447266 71.98408203 17.24447266 71.98408203 18 73 C17.67 73.66 17.34 74.32 17 75 C15.5 73.625 15.5 73.625 14 72 C14 71.34 14 70.68 14 70 C12.35 70 10.7 70 9 70 C6.90600453 73.66214455 5.93800593 77.56222448 4.9375 81.625 C4.7612207 82.33269531 4.58494141 83.04039063 4.40332031 83.76953125 C3.1069205 89.15118339 2.26624216 94.46216311 2 100 C1.34 100 0.68 100 0 100 C0 67 0 34 0 0 Z M102 5 C99.75379987 5.33873475 97.50310059 5.6482009 95.25 5.9375 C86.07399424 7.18434579 77.58604854 9.59826105 69 13 C66.66713377 13.89704902 64.33376977 14.79280425 62 15.6875 C59.99987291 16.4580035 57.99982945 17.22872431 56 18 C56 18.66 56 19.32 56 20 C56.99 20 57.98 20 59 20 C58.175 20.53625 57.35 21.0725 56.5 21.625 C53.66048792 23.80271869 53.66048792 23.80271869 53.6875 27.25 C53.790625 28.1575 53.89375 29.065 54 30 C52.68 29.34 51.36 28.68 50 28 C50 29.32 50 30.64 50 32 C49.01 32.33 48.02 32.66 47 33 C47.95882886 35.95638899 48.50699098 37.64144799 51.0625 39.5 C53.59806 41.46301419 53.52520421 42.91382739 54 46 C54.66 46.66 55.32 47.32 56 48 C56.625 50.625 56.625 50.625 57 53 C57.66 53 58.32 53 59 53 C59.17015625 53.86238281 59.17015625 53.86238281 59.34375 54.7421875 C60.06290702 57.21643012 61.09278008 58.97326256 62.5 61.125 C63.76081492 63.06753462 64.96413362 64.92826724 66 67 C66.66 67 67.32 67 68 67 C68.12375 67.804375 68.2475 68.60875 68.375 69.4375 C68.58125 70.283125 68.7875 71.12875 69 72 C69.66 72.33 70.32 72.66 71 73 C71.75521915 74.707452 72.50612784 76.41725882 73.21484375 78.14453125 C74.26288593 80.62124785 75.41698618 82.823356 77 85 C77.99 85 78.98 85 80 85 C80.01417969 85.66386719 80.02835938 86.32773438 80.04296875 87.01171875 C80.2985659 91.74372007 80.4508119 94.2959127 83.4375 98.125 C85.73980653 100.19683666 85.73980653 100.19683666 88 100 C87.505 101.485 87.505 101.485 87 103 C88.37168238 105.19038423 88.37168238 105.19038423 90 107 C90.33 106.67 90.66 106.34 91 106 C91.66 108.31 92.32 110.62 93 113 C93.99 113 94.98 113 96 113 C96.495 116.465 96.495 116.465 97 120 C98.98 120 100.96 120 103 120 C102.95359375 120.66386719 102.9071875 121.32773438 102.859375 122.01171875 C102.82328125 122.89472656 102.7871875 123.77773437 102.75 124.6875 C102.70359375 125.55761719 102.6571875 126.42773438 102.609375 127.32421875 C103.12376394 130.84778296 104.70577926 132.31248428 107 135 C108.13583963 137.07629401 109.21978292 139.18182376 110.25 141.3125 C111.03117187 142.91544922 111.03117187 142.91544922 111.828125 144.55078125 C112.21484375 145.35902344 112.6015625 146.16726562 113 147 C113.66 147 114.32 147 115 147 C115.0825 147.78375 115.165 148.5675 115.25 149.375 C115.76006652 152.07325265 115.76006652 152.07325265 117.75 153.5 C120.11875 154.2625 120.11875 154.2625 122.625 152.8125 C125.2015021 151.04974092 125.2015021 151.04974092 127 148 C127 146.68 127 145.36 127 144 C127.66 144 128.32 144 129 144 C129.32871094 143.37996094 129.65742188 142.75992188 129.99609375 142.12109375 C133.46744309 135.65817505 137.1414892 129.35660931 141.01538086 123.12866211 C143.72827323 118.83668847 143.72827323 118.83668847 145 114 C144.67 113.34 144.34 112.68 144 112 C145.32 111.67 146.64 111.34 148 111 C148 109.68 148 108.36 148 107 C148.66 107 149.32 107 150 107 C152.46047392 104.23196684 153.6532679 101.41172133 155 98 C155.66 97.34 156.32 96.68 157 96 C157 95.01 157 94.02 157 93 C157.66 93 158.32 93 159 93 C159.81404297 91.33710938 159.81404297 91.33710938 160.64453125 89.640625 C161.36697274 88.17697731 162.08964092 86.7134415 162.8125 85.25 C163.16892578 84.52039063 163.52535156 83.79078125 163.89257812 83.0390625 C165.69159765 79.40801392 167.55757477 76.24149027 170 73 C170.144375 71.96875 170.28875 70.9375 170.4375 69.875 C170.7159375 68.451875 170.7159375 68.451875 171 67 C171.58652344 66.75378906 172.17304688 66.50757813 172.77734375 66.25390625 C176.10125872 64.37872751 177.38804822 61.32836561 179.125 58.0625 C182.94602273 51.08096591 182.94602273 51.08096591 185 48 C185 46.68 185 45.36 185 44 C185.61617187 43.76023438 186.23234375 43.52046875 186.8671875 43.2734375 C189.5146631 41.69271031 190.00390164 40.46071937 191.125 37.625 C192.31613334 34.68162091 193.5432854 31.82319024 195 29 C194.01 27.515 194.01 27.515 193 26 C191.02 26.66 189.04 27.32 187 28 C186.01 25.36 185.02 22.72 184 20 C182.35 20 180.7 20 179 20 C178.67 19.34 178.34 18.68 178 18 C177.01 18.33 176.02 18.66 175 19 C174.5978125 18.1028125 174.5978125 18.1028125 174.1875 17.1875 C172.45301324 13.99239281 170.96933901 12.39393937 167.55859375 11.0078125 C159.30246852 8.67253803 150.97989336 6.90120564 142.5625 5.25 C141.43706787 5.02715332 140.31163574 4.80430664 139.15209961 4.57470703 C129.91286921 2.73436409 129.91286921 2.73436409 120.625 3.5625 C117.99801212 4.00033131 116.23724772 3.81698193 113.625 3.4375 C109.21893258 2.87502331 106.27589557 3.66816368 102 5 Z " fill="#15388C" transform="translate(0,0)"/>
<path d="M0 0 C1.2456406 3.7369218 0.6963316 4.5265591 -1 8 C-2.051875 9.546875 -2.051875 9.546875 -3.125 11.125 C-5.27313389 13.84674154 -5.27313389 13.84674154 -5 17 C-5.5775 17.185625 -6.155 17.37125 -6.75 17.5625 C-9.9983473 19.637833 -11.26292174 22.68310983 -13 26 C-13.5775 26.928125 -14.155 27.85625 -14.75 28.8125 C-16.16537965 30.86950512 -16.16537965 30.86950512 -16 33 C-17.33333333 34.33333333 -18.66666667 35.66666667 -20 37 C-20.433125 37.87785156 -20.433125 37.87785156 -20.875 38.7734375 C-22.33774191 41.66844753 -24.19988043 44.14177348 -26.125 46.75 C-26.84945312 47.73484375 -27.57390625 48.7196875 -28.3203125 49.734375 C-28.87460938 50.48203125 -29.42890625 51.2296875 -30 52 C-25.69685789 51.42668184 -25.69685789 51.42668184 -22.75 48.125 C-20.93125227 45.10645552 -20.93125227 45.10645552 -20 42 C-19.01 41.67 -18.02 41.34 -17 41 C-18.875 46.75 -18.875 46.75 -20 49 C-20.66 49 -21.32 49 -22 49 C-22.24363281 49.51304687 -22.48726562 50.02609375 -22.73828125 50.5546875 C-36.25530547 76.75176849 -36.25530547 76.75176849 -43 79 C-43.72455635 80.64232772 -44.37774395 82.31624835 -45 84 C-46.27233737 86.37273725 -47.63446403 88.67858886 -49 91 C-49.99 90.67 -50.98 90.34 -52 90 C-52 89.34 -52 88.68 -52 88 C-53.32 89.32 -54.64 90.64 -56 92 C-56.66 91.67 -57.32 91.34 -58 91 C-44.43869283 69.26563343 -30.77490838 47.59958494 -17 26 C-16.27847338 24.86800748 -15.5569568 23.73600856 -14.83544922 22.60400391 C-12.98223898 19.69687666 -11.12744864 16.79076265 -9.27160645 13.88531494 C-8.20208739 12.21034526 -7.13375027 10.53462106 -6.06542969 8.85888672 C-5.41864258 7.84713379 -4.77185547 6.83538086 -4.10546875 5.79296875 C-3.52949951 4.8908667 -2.95353027 3.98876465 -2.36010742 3.05932617 C-1 1 -1 1 0 0 Z " fill="#530A3C" transform="translate(208,95)"/>
<path d="M0 0 C3.05981692 2.85588484 5.23850955 5.72592853 7.3984375 9.3046875 C8.03563721 10.35213135 8.67283691 11.3995752 9.3293457 12.47875977 C10.00441162 13.59951904 10.67947754 14.72027832 11.375 15.875 C12.81077812 18.23752378 14.25106162 20.59728946 15.69140625 22.95703125 C16.05362778 23.55150558 16.4158493 24.14597992 16.78904724 24.75846863 C25.89830999 39.68740004 35.47089564 54.33684757 45 69 C44.01 69.495 44.01 69.495 43 70 C40.43004926 68.71502463 40.09565537 67.50087627 38.875 64.9375 C38.52179688 64.20402344 38.16859375 63.47054687 37.8046875 62.71484375 C37.53914063 62.14894531 37.27359375 61.58304688 37 61 C36.34 61.66 35.68 62.32 35 63 C32.6875 63.1015625 32.6875 63.1015625 30 62 C27.99857916 59.65623086 26.52366166 57.04616934 25 54.375 C24.16894375 52.96480143 23.33562073 51.55593617 22.5 50.1484375 C21.88692993 49.10852661 21.88692993 49.10852661 21.26147461 48.04760742 C19.33119101 44.91439887 17.1578465 41.98022983 15 39 C14.29642745 37.82195154 13.60881666 36.63422321 12.9375 35.4375 C11.60416102 33.07189858 10.2844879 30.90577724 8.75 28.6875 C7 26 7 26 7 24 C8.32 24 9.64 24 11 24 C10.67 22.35 10.34 20.7 10 19 C9.01 18.67 8.02 18.34 7 18 C6.67 15.69 6.34 13.38 6 11 C5.34 11 4.68 11 4 11 C3.87625 10.360625 3.7525 9.72125 3.625 9.0625 C3.41875 8.381875 3.2125 7.70125 3 7 C2.34 6.67 1.68 6.34 1 6 C1.33 5.34 1.66 4.68 2 4 C1.01 3.67 0.02 3.34 -1 3 C-0.67 2.01 -0.34 1.02 0 0 Z " fill="#6D0A49" transform="translate(73,161)"/>
<path d="M0 0 C0.99 0.33 1.98 0.66 3 1 C2.60731934 1.61407715 2.21463867 2.2281543 1.81005859 2.86083984 C-0.00305116 5.69798631 -1.81403438 8.53648448 -3.625 11.375 C-4.24246094 12.34050781 -4.85992187 13.30601562 -5.49609375 14.30078125 C-6.41455078 15.74130859 -6.41455078 15.74130859 -7.3515625 17.2109375 C-7.96290039 18.16967773 -8.57423828 19.12841797 -9.20410156 20.11621094 C-11.45400954 23.72903217 -13.57085712 27.41224171 -15.65380859 31.12353516 C-17 33 -17 33 -20 34 C-21.50513937 36.16705534 -22.86354484 38.29046845 -24.1875 40.5625 C-24.55552734 41.17802734 -24.92355469 41.79355469 -25.30273438 42.42773438 C-26.209679 43.94716109 -27.10588168 45.47299033 -28 47 C-28.93585938 46.70802734 -28.93585938 46.70802734 -29.890625 46.41015625 C-30.58671875 46.27480469 -31.2828125 46.13945312 -32 46 C-33.77190909 47.35444301 -33.77190909 47.35444301 -35 49 C-35.66 48.67 -36.32 48.34 -37 48 C-34.37369561 43.68607035 -31.74267583 39.3751923 -29.1015625 35.0703125 C-27.09877563 31.80498081 -25.11562055 28.52907407 -23.1484375 25.2421875 C-22.26590889 23.78628621 -21.38310874 22.33054947 -20.5 20.875 C-20.09152832 20.18277344 -19.68305664 19.49054688 -19.26220703 18.77734375 C-18.25598162 17.13239857 -17.13719596 15.55727954 -16 14 C-15.01 14 -14.02 14 -13 14 C-12.34 12.68 -11.68 11.36 -11 10 C-9.68 10.33 -8.36 10.66 -7 11 C-3.85014682 7.43569245 -1.4859916 4.59306496 0 0 Z " fill="#710A4A" transform="translate(165,173)"/>
<path d="M0 0 C0.99 0 1.98 0 3 0 C3.433125 0.9590625 3.433125 0.9590625 3.875 1.9375 C4.82823451 4.15206079 4.82823451 4.15206079 7 5 C7.5625 6.9375 7.5625 6.9375 8 9 C8.33 9.66 8.66 10.32 9 11 C9.66 10.67 10.32 10.34 11 10 C11.33 12.31 11.66 14.62 12 17 C12.99 17.33 13.98 17.66 15 18 C15.33 20.31 15.66 22.62 16 25 C17.98 25 19.96 25 22 25 C22.144375 26.051875 22.28875 27.10375 22.4375 28.1875 C22.623125 29.445625 22.80875 30.70375 23 32 C23.12375 32.928125 23.2475 33.85625 23.375 34.8125 C23.84959635 37.36747698 23.84959635 37.36747698 27 39 C29.03524277 43.23330497 30.57951592 47.52001175 32 52 C32.66 52 33.32 52 34 52 C34.268125 52.804375 34.53625 53.60875 34.8125 54.4375 C35.4003125 55.7059375 35.4003125 55.7059375 36 57 C38.81465013 58.23648087 38.81465013 58.23648087 41 57.5 C44.03443071 55.22417697 44.69328236 52.52813764 46 49 C46.66 49 47.32 49 48 49 C48.268125 48.29875 48.53625 47.5975 48.8125 46.875 C51.23462583 41.01090589 54.32905759 35.56857678 57.5625 30.125 C58.16094727 29.09246094 58.16094727 29.09246094 58.77148438 28.0390625 C59.79057036 26.32413983 60.8890723 24.65690545 62 23 C62.66 23 63.32 23 64 23 C62.71383439 27.26728424 61.08893702 30.83220689 58.76953125 34.6328125 C58.13080078 35.68726563 57.49207031 36.74171875 56.83398438 37.828125 C56.16689453 38.91609375 55.49980469 40.0040625 54.8125 41.125 C53.50576593 43.27298476 52.19977406 45.42142123 50.89453125 47.5703125 C50.25080566 48.62379883 49.60708008 49.67728516 48.94384766 50.76269531 C47.60635761 52.99016555 46.29814647 55.21840385 45.02099609 57.47949219 C44.39918457 58.57680664 43.77737305 59.67412109 43.13671875 60.8046875 C42.58072998 61.80226074 42.02474121 62.79983398 41.4519043 63.82763672 C40.97277588 64.5445166 40.49364746 65.26139648 40 66 C39.34 66 38.68 66 38 66 C36.72000912 64.11354765 35.53971517 62.1593127 34.40234375 60.18359375 C34.05222229 59.58051392 33.70210083 58.97743408 33.34136963 58.3560791 C32.2000197 56.38702495 31.06890695 54.41228101 29.9375 52.4375 C29.15554763 51.08553046 28.37275077 49.73404901 27.58911133 48.38305664 C26.06010296 45.74642393 24.53386583 43.10822255 23.00976562 40.46875 C20.77359502 36.60198432 18.49779136 32.76042893 16.1875 28.9375 C15.20523438 27.30554688 15.20523438 27.30554688 14.203125 25.640625 C12.96247203 23.58704894 11.71773186 21.53604202 10.47070312 19.48632812 C8.78945204 16.72217085 7.11345735 13.95486931 5.4375 11.1875 C4.89955811 10.30763428 4.36161621 9.42776855 3.80737305 8.52124023 C3.06547729 7.29449585 3.06547729 7.29449585 2.30859375 6.04296875 C1.64041626 4.94505005 1.64041626 4.94505005 0.95874023 3.82495117 C0 2 0 2 0 0 Z " fill="#10194C" transform="translate(81,95)"/>
<path d="M0 0 C0.66 0 1.32 0 2 0 C2.515625 0.680625 3.03125 1.36125 3.5625 2.0625 C6.3428596 5.41318978 9.40261251 7.76046329 12.87890625 10.3515625 C14.76393745 11.81654071 16.45741467 13.17916352 18 15 C18.1875 17.6875 18.1875 17.6875 18 20 C17.34 20.33 16.68 20.66 16 21 C17.23780318 24.82470326 17.23780318 24.82470326 20.125 27.5 C20.74375 27.995 21.3625 28.49 22 29 C22.25 31.6875 22.25 31.6875 22 34 C23.485 34.495 23.485 34.495 25 35 C25 36.98 25 38.96 25 41 C25.66 41 26.32 41 27 41 C29.21935073 44.72278187 31.02468937 47.77365392 32 52 C32.99 52.495 32.99 52.495 34 53 C37 56.46153846 37 56.46153846 37 60 C37.99 60.33 38.98 60.66 40 61 C41.08301035 63.29598193 42.07796291 65.63477442 43 68 C43.89831016 70.30230766 43.89831016 70.30230766 45 72 C45.99 72.33 46.98 72.66 48 73 C49.3125 76.375 49.3125 76.375 50 80 C49.34 80.99 48.68 81.98 48 83 C46.95963542 81.22526042 45.91927083 79.45052083 44.87890625 77.67578125 C44.54791931 77.1111618 44.21693237 76.54654236 43.87591553 75.96481323 C41.99885168 72.76278547 40.12182888 69.56073365 38.24487305 66.35864258 C34.35675784 59.72560427 30.46817968 53.09283859 26.578125 46.4609375 C23.41224455 41.06358187 20.24802869 35.66525383 17.08547974 30.26594543 C15.00897714 26.72104521 12.9304051 23.17736829 10.85047913 19.63447571 C9.21107707 16.84067119 7.57451363 14.04520446 5.9375 11.25 C5.33526611 10.22543701 4.73303223 9.20087402 4.11254883 8.14526367 C3.56880615 7.21560791 3.02506348 6.28595215 2.46484375 5.328125 C1.986521 4.5124707 1.50819824 3.69681641 1.01538086 2.85644531 C0 1 0 1 0 0 Z " fill="#12377A" transform="translate(32,12)"/>
<path d="M0 0 C0.99 0.495 0.99 0.495 2 1 C1.34 1.66 0.68 2.32 0 3 C0 3.99 0 4.98 0 6 C-1.375 8.1875 -1.375 8.1875 -3 10 C-3.66 10 -4.32 10 -5 10 C-5.103125 10.556875 -5.20625 11.11375 -5.3125 11.6875 C-6.5209148 15.75216796 -8.96956046 18.98063392 -11.4375 22.375 C-13.50520329 25.23511652 -15.31675939 28.15099767 -17.0234375 31.23828125 C-17.69760288 32.4544756 -18.3916913 33.65976371 -19.1015625 34.85546875 C-20.8745815 37.8466411 -22.4457754 40.53609624 -23 44 C-23.66 44 -24.32 44 -25 44 C-25.2475 44.556875 -25.495 45.11375 -25.75 45.6875 C-27.60448514 49.11829751 -30.12627409 51.95824988 -32.625 54.9375 C-34.32398031 57.48597047 -35.05402474 60.09900919 -36 63 C-38 65 -38 65 -41.9140625 65.1953125 C-43.48449351 65.18200376 -45.05486221 65.15813602 -46.625 65.125 C-47.42679688 65.11597656 -48.22859375 65.10695313 -49.0546875 65.09765625 C-51.03658523 65.07406223 -53.01832981 65.03819065 -55 65 C-55.33 64.01 -55.66 63.02 -56 62 C-56.99 61.34 -57.98 60.68 -59 60 C-59.6875 57.375 -59.6875 57.375 -60 55 C-60.66 55 -61.32 55 -62 55 C-62.495 53.515 -62.495 53.515 -63 52 C-62.01 51.505 -62.01 51.505 -61 51 C-58 55.75 -58 55.75 -58 58 C-56.7315625 58.185625 -56.7315625 58.185625 -55.4375 58.375 C-51.84763202 59.02770327 -48.49175125 59.95247463 -45 61 C-44.67 60.34 -44.34 59.68 -44 59 C-42.02 59.66 -40.04 60.32 -38 61 C-37.814375 60.21625 -37.62875 59.4325 -37.4375 58.625 C-35.83675497 54.58833863 -33.71000066 51.64416757 -31.17578125 48.14453125 C-28.53859756 44.33316165 -26.14397219 40.40453339 -23.75 36.4375 C-16.2388863 24.02772086 -8.47804361 11.77666808 0 0 Z " fill="#DD148B" transform="translate(167,175)"/>
<path d="M0 0 C0.66 0.33 1.32 0.66 2 1 C1.66790527 1.52319824 1.33581055 2.04639648 0.99365234 2.58544922 C-7.66403003 16.19375139 -7.66403003 16.19375139 -16 30 C-16.886875 29.814375 -17.77375 29.62875 -18.6875 29.4375 C-21.88965669 29.01457364 -23.90675408 29.24758883 -27 30 C-27.99 30 -28.98 30 -30 30 C-30 29.34 -30 28.68 -30 28 C-31.3921875 27.9071875 -31.3921875 27.9071875 -32.8125 27.8125 C-36 27 -36 27 -37.875 24.5625 C-39 22 -39 22 -39 20 C-39.99 19.67 -40.98 19.34 -42 19 C-41.67 18.34 -41.34 17.68 -41 17 C-39.68 17.33 -38.36 17.66 -37 18 C-36.34 16.68 -35.68 15.36 -35 14 C-31 20.625 -31 20.625 -31 24 C-28.525 24.99 -28.525 24.99 -26 26 C-26 26.66 -26 27.32 -26 28 C-25.34 28 -24.68 28 -24 28 C-23.7525 27.319375 -23.505 26.63875 -23.25 25.9375 C-21.71490976 22.33003794 -20.19840296 19.26619869 -18 16 C-15.25 15.0625 -15.25 15.0625 -13 15 C-12.67 14.01 -12.34 13.02 -12 12 C-10.68 12.33 -9.36 12.66 -8 13 C-7.50628906 12.14535156 -7.01257813 11.29070312 -6.50390625 10.41015625 C-5.86324219 9.30542969 -5.22257812 8.20070312 -4.5625 7.0625 C-3.60537109 5.40927734 -3.60537109 5.40927734 -2.62890625 3.72265625 C-1 1 -1 1 0 0 Z " fill="#840A52" transform="translate(145,206)"/>
<path d="M0 0 C0.33 0 0.66 0 1 0 C0.52175858 5.30050903 -0.64483595 8.65557013 -3.5 13.125 C-4.31623715 14.43077266 -5.12978586 15.73822773 -5.94140625 17.046875 C-6.41336426 17.80419922 -6.88532227 18.56152344 -7.37158203 19.34179688 C-10.43070511 24.33545986 -13.3665877 29.40266188 -16.31912231 34.45980835 C-18.16567556 37.62198102 -20.01678402 40.78148567 -21.8671875 43.94140625 C-22.22371902 44.55055374 -22.58025055 45.15970123 -22.94758606 45.78730774 C-25.97901788 50.96642198 -29.01837698 56.14083731 -32.0625 61.3125 C-32.67919556 62.36026611 -32.67919556 62.36026611 -33.30834961 63.42919922 C-34.20536724 64.95291674 -35.10264514 66.47648105 -36 68 C-36.66 67.67 -37.32 67.34 -38 67 C-38 65.02 -38 63.04 -38 61 C-36.515 60.505 -36.515 60.505 -35 60 C-34.26676204 57.98491642 -34.26676204 57.98491642 -34 56 C-33.34 56 -32.68 56 -32 56 C-31.22227595 53.66682784 -30.57584432 51.38564077 -30 49 C-29.34 49 -28.68 49 -28 49 C-27.5359375 47.824375 -27.5359375 47.824375 -27.0625 46.625 C-26 44 -26 44 -25 42 C-24.34 42 -23.68 42 -23 42 C-22.85304687 41.45472656 -22.70609375 40.90945312 -22.5546875 40.34765625 C-20.93935815 34.91680758 -18.6857816 30.82185611 -15.42578125 26.2109375 C-13.33037508 22.96162273 -12.22007517 19.66022551 -11 16 C-10 14 -10 14 -7 13 C-5.60880576 10.71141853 -5.60880576 10.71141853 -4.4375 8 C-2.20423183 3.10211592 -2.20423183 3.10211592 0 2 C0 1.34 0 0.68 0 0 Z " fill="#0E4890" transform="translate(182,51)"/>
<path d="M0 0 C1.2456406 3.7369218 0.6963316 4.5265591 -1 8 C-1.70125 9.03125 -2.4025 10.0625 -3.125 11.125 C-5.27313389 13.84674154 -5.27313389 13.84674154 -5 17 C-5.5775 17.185625 -6.155 17.37125 -6.75 17.5625 C-9.9983473 19.637833 -11.26292174 22.68310983 -13 26 C-13.5775 26.928125 -14.155 27.85625 -14.75 28.8125 C-16.16537965 30.86950512 -16.16537965 30.86950512 -16 33 C-17.33333333 34.33333333 -18.66666667 35.66666667 -20 37 C-20.28101563 37.56460938 -20.56203125 38.12921875 -20.8515625 38.7109375 C-22.45694784 41.91078718 -24.47532227 44.80677838 -26.5 47.75 C-26.90347656 48.35199219 -27.30695313 48.95398438 -27.72265625 49.57421875 C-28.76220271 51.08722202 -29.87588843 52.54872163 -31 54 C-31.66 54 -32.32 54 -33 54 C-32.39101751 51.09734329 -31.50503463 48.89668548 -29.953125 46.375 C-29.52684814 45.67842285 -29.10057129 44.9818457 -28.66137695 44.26416016 C-28.19562256 43.5169873 -27.72986816 42.76981445 -27.25 42 C-26.7655542 41.21544434 -26.2811084 40.43088867 -25.78198242 39.62255859 C-17.47158023 26.23555879 -8.79489098 13.07276846 0 0 Z " fill="#2C1033" transform="translate(208,95)"/>
<path d="M0 0 C0.66 0 1.32 0 2 0 C2.515625 0.680625 3.03125 1.36125 3.5625 2.0625 C6.3428596 5.41318978 9.40261251 7.76046329 12.87890625 10.3515625 C14.76393745 11.81654071 16.45741467 13.17916352 18 15 C18.1875 17.6875 18.1875 17.6875 18 20 C17.34 20.33 16.68 20.66 16 21 C17.1858237 24.37503669 18.27573689 26.64722731 21 29 C20.01 29.66 19.02 30.32 18 31 C13.53724918 24.51309437 9.50465945 17.84927533 5.625 11 C4.80708984 9.57107422 4.80708984 9.57107422 3.97265625 8.11328125 C0 1.13375235 0 1.13375235 0 0 Z " fill="#0B1A4D" transform="translate(32,12)"/>
<path d="M0 0 C0.99 0 1.98 0 3 0 C3.433125 0.9590625 3.433125 0.9590625 3.875 1.9375 C4.82823451 4.15206079 4.82823451 4.15206079 7 5 C7.5625 6.9375 7.5625 6.9375 8 9 C8.33 9.66 8.66 10.32 9 11 C9.66 10.67 10.32 10.34 11 10 C11.33 12.31 11.66 14.62 12 17 C12.99 17.33 13.98 17.66 15 18 C15.33 20.31 15.66 22.62 16 25 C17.98 25 19.96 25 22 25 C23.28571429 32.42857143 23.28571429 32.42857143 22 36 C21.34 36 20.68 36 20 36 C19.57178955 35.25427734 19.1435791 34.50855469 18.70239258 33.74023438 C17.0914528 30.93648126 15.47915176 28.13351651 13.8659668 25.33105469 C13.17207289 24.12498185 12.47870025 22.91860895 11.78588867 21.71191406 C7.03185756 13.41680689 7.03185756 13.41680689 2.01171875 5.28125 C0 2 0 2 0 0 Z " fill="#123277" transform="translate(81,95)"/>
<path d="M0 0 C0.66 0 1.32 0 2 0 C2.06058594 1.24394531 2.12117187 2.48789063 2.18359375 3.76953125 C2.39722104 8.08289208 2.63298624 12.39477312 2.87646484 16.70654297 C2.970975 18.46114459 3.04636896 20.21678559 3.11328125 21.97265625 C3.72158615 32.66144242 6.61883304 43.85649912 10 54 C9.5625 56.1875 9.5625 56.1875 9 58 C6.17489917 52.99738592 4.95239811 48.18699311 3.8125 42.625 C3.54663086 41.37783203 3.54663086 41.37783203 3.27539062 40.10546875 C2.84295493 38.07185226 2.42045802 36.03612664 2 34 C1.01 34.495 1.01 34.495 0 35 C0 23.45 0 11.9 0 0 Z " fill="#3E0E56" transform="translate(0,100)"/>
<path d="M0 0 C3.97233223 11.91699669 -3.04918087 29.31273307 -8.25 39.8125 C-9.15652113 41.54700701 -10.06935896 43.27831408 -11 45 C-10.32453125 44.65066406 -9.6490625 44.30132812 -8.953125 43.94140625 C-8.06109375 43.48636719 -7.1690625 43.03132813 -6.25 42.5625 C-5.36828125 42.11003906 -4.4865625 41.65757812 -3.578125 41.19140625 C-1.35801434 40.16544602 0.61444619 39.48491397 3 39 C-0.84919283 43.33034194 -4.72289646 45.6560756 -10 48 C-10.33 47.34 -10.66 46.68 -11 46 C-12.485 46.495 -12.485 46.495 -14 47 C-13.2278787 43.45136172 -11.75497929 40.55189774 -10.109375 37.3203125 C-4.77738527 26.16819313 -2.20351197 14.23570503 -1 2 C-0.67 1.34 -0.34 0.68 0 0 Z " fill="#DF168D" transform="translate(176,181)"/>
<path d="M0 0 C1.16895162 3.50685485 0.86737379 3.88641539 -0.6875 7.0546875 C-1.24050781 8.22451172 -1.24050781 8.22451172 -1.8046875 9.41796875 C-2.59849059 11.0496751 -3.39534459 12.67990092 -4.1953125 14.30859375 C-6.37426527 18.83352741 -6.37426527 18.83352741 -6.97265625 23.73828125 C-5.76397148 26.54883739 -4.24659194 28.84555644 -2.4375 31.3125 C-1.79683594 32.19550781 -1.15617188 33.07851562 -0.49609375 33.98828125 C-0.00238281 34.65214844 0.49132813 35.31601563 1 36 C0.67 36.66 0.34 37.32 0 38 C-1.5 36.625 -1.5 36.625 -3 35 C-3 34.34 -3 33.68 -3 33 C-4.65 33 -6.3 33 -8 33 C-9.69433918 36.0469629 -10.49467112 38.82821466 -11.125 42.25 C-11.29257813 43.14203125 -11.46015625 44.0340625 -11.6328125 44.953125 C-11.75398437 45.62859375 -11.87515625 46.3040625 -12 47 C-12.33 47 -12.66 47 -13 47 C-13.38385198 40.7304176 -12.53897282 36.81847937 -10 31 C-9.7790259 28.30622049 -9.91392289 25.71142886 -10 23 C-9.625 19.5625 -9.625 19.5625 -9 17 C-8.34 16.67 -7.68 16.34 -7 16 C-6.23381583 14.12030704 -6.23381583 14.12030704 -5.625 11.875 C-4.25573395 7.48632676 -2.40995151 3.90578348 0 0 Z " fill="#1F103A" transform="translate(17,37)"/>
<path d="M0 0 C0.66 0 1.32 0 2 0 C0.94035767 3.27525811 -0.39278645 5.61381469 -2.625 8.1875 C-5.21506027 10.64115354 -5.21506027 10.64115354 -5 13 C-5.556875 13.226875 -6.11375 13.45375 -6.6875 13.6875 C-9.65837149 15.37367031 -11.60822958 17.55387116 -14 20 C-18.43309084 24.09349589 -22.88922367 27.79090788 -28 31 C-28.99 31.66 -29.98 32.32 -31 33 C-31.99 32.67 -32.98 32.34 -34 32 C-31.06778884 29.68072938 -28.12836892 27.37077926 -25.1875 25.0625 C-24.35412109 24.40314453 -23.52074219 23.74378906 -22.66210938 23.06445312 C-21.45844727 22.12182617 -21.45844727 22.12182617 -20.23046875 21.16015625 C-19.49207764 20.57886963 -18.75368652 19.99758301 -17.99291992 19.39868164 C-16 18 -16 18 -13 17 C-12.30344392 15.68203496 -11.64191837 14.34542299 -11 13 C-9.72773841 11.46572275 -8.41159578 9.96717307 -7.0625 8.5 C-5.03881465 6.29096777 -3.11269176 4.15782251 -1.37109375 1.71875 C-0.91863281 1.1515625 -0.46617187 0.584375 0 0 Z " fill="#B11274" transform="translate(213,187)"/>
<path d="M0 0 C0.66 0 1.32 0 2 0 C2.02480683 4.18090413 2.04291049 8.36176872 2.05493164 12.54272461 C2.05994565 13.96363064 2.06675852 15.38453156 2.07543945 16.80541992 C2.08763388 18.85336576 2.09325772 20.9012431 2.09765625 22.94921875 C2.10289307 24.17987061 2.10812988 25.41052246 2.11352539 26.6784668 C1.98230495 30.51772281 1.50456991 33.75539421 0.0625 37.3125 C-1.3222905 40.81520537 -2.13046486 44.33553047 -3 48 C-3.33 48 -3.66 48 -4 48 C-3.56108163 42.77918144 -2.96413567 37.6516503 -2 32.5 C-0.85629343 25.75431664 -0.56043658 19.08024731 -0.375 12.25 C-0.33632812 11.0640625 -0.29765625 9.878125 -0.2578125 8.65625 C-0.16473915 5.77097625 -0.07891059 2.88568979 0 0 Z " fill="#460F57" transform="translate(238,98)"/>
<path d="M0 0 C0.33 0 0.66 0 1 0 C1.33 3.63 1.66 7.26 2 11 C1.01 11.495 1.01 11.495 0 12 C-0.33 10.68 -0.66 9.36 -1 8 C-5.72006083 11.48874061 -7.1971678 13.35112576 -9 19 C-10.62935241 20.37868281 -12.29749607 21.71274093 -14 23 C-16.50797651 26.45927795 -17 27.61253376 -17 32 C-18.98 32.99 -20.96 33.98 -23 35 C-21.58620784 31.08080972 -19.73078651 27.85688186 -17.41015625 24.40234375 C-16.35731445 22.82936523 -16.35731445 22.82936523 -15.28320312 21.22460938 C-14.55037109 20.13986328 -13.81753906 19.05511719 -13.0625 17.9375 C-12.33353516 16.84888672 -11.60457031 15.76027344 -10.85351562 14.63867188 C-8.91435485 11.75037099 -6.97488166 8.86399882 -5 6 C-4.20420532 4.8409314 -4.20420532 4.8409314 -3.39233398 3.65844727 C-2.93286377 3.11115967 -2.47339355 2.56387207 -2 2 C-1.34 2 -0.68 2 0 2 C0 1.34 0 0.68 0 0 Z " fill="#1B112A" transform="translate(232,60)"/>
<path d="M0 0 C0.99 0 1.98 0 3 0 C3.69238281 1.62670898 3.69238281 1.62670898 4 4 C2.78417969 6.79321289 2.78417969 6.79321289 0.921875 9.97265625 C0.4310141 10.81913979 0.4310141 10.81913979 -0.06976318 11.682724 C-0.76352186 12.8736709 -1.46324317 14.06116158 -2.16845703 15.24536133 C-3.24410681 17.05259864 -4.30118159 18.86968751 -5.35546875 20.68945312 C-10.99060128 30.3197903 -10.99060128 30.3197903 -14 33 C-13.68143549 30.99759451 -13.34578768 28.99788438 -13 27 C-12.896875 26.278125 -12.79375 25.55625 -12.6875 24.8125 C-12 23 -12 23 -10.125 21.8125 C-7.19012104 19.30922089 -6.71477039 16.6101653 -5.7109375 12.9609375 C-5 11 -5 11 -3 10 C-3.061875 9.278125 -3.12375 8.55625 -3.1875 7.8125 C-2.96105777 4.4158666 -2.06745292 2.68003157 0 0 Z " fill="#0F2D72" transform="translate(197,21)"/>
<path d="M0 0 C3.03842401 2.84403134 5.24678637 5.71393618 7.42578125 9.25390625 C8.05806641 10.27419922 8.69035156 11.29449219 9.34179688 12.34570312 C9.99212891 13.40724609 10.64246094 14.46878906 11.3125 15.5625 C12.59981759 17.64740891 13.88757596 19.73204571 15.17578125 21.81640625 C15.80307129 22.83879395 16.43036133 23.86118164 17.07666016 24.91455078 C19.58570318 28.9395934 22.20090643 32.89263136 24.83666992 36.83569336 C25.22056885 37.54991455 25.60446777 38.26413574 26 39 C25.67 39.66 25.34 40.32 25 41 C23.515 40.505 23.515 40.505 22 40 C21.87625 39.195625 21.7525 38.39125 21.625 37.5625 C21.41875 36.716875 21.2125 35.87125 21 35 C20.34 34.67 19.68 34.34 19 34 C18.71125 33.236875 18.4225 32.47375 18.125 31.6875 C17.17541907 28.92316578 17.17541907 28.92316578 15.0625 27.125 C12.42633352 24.40894968 11.47293059 21.45818486 10 18 C9.01 17.34 8.02 16.68 7 16 C7 15.01 7 14.02 7 13 C6.34 13 5.68 13 5 13 C5 11.35 5 9.7 5 8 C3.68 7.34 2.36 6.68 1 6 C1 5.01 1 4.02 1 3 C0.01 2.67 -0.98 2.34 -2 2 C-1.34 2 -0.68 2 0 2 C0 1.34 0 0.68 0 0 Z " fill="#2E122E" transform="translate(47,120)"/>
<path d="M0 0 C4 4.75 4 4.75 4 7 C4.845625 7.12375 5.69125 7.2475 6.5625 7.375 C10.15236798 8.02770327 13.50824875 8.95247463 17 10 C17.33 9.34 17.66 8.68 18 8 C19.65 8.66 21.3 9.32 23 10 C22.34 11.32 21.68 12.64 21 14 C16.38 14 11.76 14 7 14 C6.67 13.01 6.34 12.02 6 11 C5.01 10.34 4.02 9.68 3 9 C2.3125 6.375 2.3125 6.375 2 4 C1.34 4 0.68 4 0 4 C-0.33 3.01 -0.66 2.02 -1 1 C-0.67 0.67 -0.34 0.34 0 0 Z " fill="#A90867" transform="translate(105,226)"/>
<path d="M0 0 C0.66 0 1.32 0 2 0 C0.69789319 4.33808008 -0.97989827 7.94582995 -3.3359375 11.80859375 C-3.98820312 12.88560547 -4.64046875 13.96261719 -5.3125 15.07226562 C-5.993125 16.18279297 -6.67375 17.29332031 -7.375 18.4375 C-8.71673829 20.64417112 -10.05790001 22.85119294 -11.3984375 25.05859375 C-12.33768066 26.60135986 -12.33768066 26.60135986 -13.29589844 28.17529297 C-15.253787 31.42067558 -17.14528821 34.69480847 -19 38 C-20.32 37.67 -21.64 37.34 -23 37 C-22.67 36.01 -22.34 35.02 -22 34 C-20.515 33.505 -20.515 33.505 -19 33 C-17.28432339 29.49705129 -17.28432339 29.49705129 -16 26 C-15.34 26 -14.68 26 -14 26 C-13.731875 25.29875 -13.46375 24.5975 -13.1875 23.875 C-10.76537417 18.01090589 -7.67094241 12.56857678 -4.4375 7.125 C-3.83905273 6.09246094 -3.83905273 6.09246094 -3.22851562 5.0390625 C-2.20942964 3.32413983 -1.1109277 1.65690545 0 0 Z " fill="#0C1647" transform="translate(143,118)"/>
<path d="M0 0 C0.66 0.33 1.32 0.66 2 1 C-1.53295864 4.00399441 -5.02940792 6.20452862 -9.1875 8.25 C-10.23292969 8.77078125 -11.27835938 9.2915625 -12.35546875 9.828125 C-15 11 -15 11 -17 11 C-15.88786134 7.50470706 -14.68426809 4.25530808 -13 1 C-12.31292969 1.01160156 -11.62585938 1.02320313 -10.91796875 1.03515625 C-10.01691406 1.04417969 -9.11585938 1.05320313 -8.1875 1.0625 C-6.84751953 1.07990234 -6.84751953 1.07990234 -5.48046875 1.09765625 C-2.86586209 1.11009967 -2.86586209 1.11009967 0 0 Z " fill="#63084E" transform="translate(182,215)"/>
<path d="M0 0 C0 3.69609599 -0.90032865 4.48889187 -3.1875 7.3125 C-3.77917969 8.05113281 -4.37085938 8.78976563 -4.98046875 9.55078125 C-5.64691406 10.35902344 -6.31335938 11.16726562 -7 12 C-7.76699219 12.97710937 -8.53398437 13.95421875 -9.32421875 14.9609375 C-12.06684223 18.2427851 -15.21122469 20.75996252 -18.625 23.3125 C-19.19734375 23.75400391 -19.7696875 24.19550781 -20.359375 24.65039062 C-22.89250441 26.57380167 -24.96116034 27.98705345 -28 29 C-28 28.01 -28 27.02 -28 26 C-26.390625 24.75390625 -26.390625 24.75390625 -24.25 23.5625 C-21.02570664 21.66886739 -18.5192534 19.79917044 -16 17 C-15 16 -14 15 -13 14 C-12.175 13.13375 -11.35 12.2675 -10.5 11.375 C-8 9 -8 9 -5 8 C-4.32060826 6.00428677 -3.65438441 4.00405227 -3 2 C-2.01 1.34 -1.02 0.68 0 0 Z " fill="#670452" transform="translate(212,186)"/>
<path d="M0 0 C4.18278069 3.67607804 6.79867747 8.18153101 9.6875 12.875 C10.74662553 14.57990585 11.80652918 16.28432856 12.8671875 17.98828125 C13.39151367 18.83213379 13.91583984 19.67598633 14.45605469 20.54541016 C15.88320486 22.81431714 17.34035133 25.05825903 18.8203125 27.29296875 C19.24352783 27.93443848 19.66674316 28.5759082 20.1027832 29.23681641 C20.89469834 30.43196099 21.69250636 31.62322676 22.49682617 32.81005859 C23.39174817 34.16871478 24.2055434 35.58025681 25 37 C24.67 37.66 24.34 38.32 24 39 C20.15383526 34.91193811 17.36410449 31.59282842 16 26 C15.34 26 14.68 26 14 26 C13.67 24.35 13.34 22.7 13 21 C12.34 21 11.68 21 11 21 C10.566875 20.030625 10.13375 19.06125 9.6875 18.0625 C8.2985139 14.72268235 8.2985139 14.72268235 5 14 C5 12.02 5 10.04 5 8 C4.34 8 3.68 8 3 8 C0 2.25 0 2.25 0 0 Z " fill="#A1126D" transform="translate(71,173)"/>
<path d="M0 0 C0 3.20395416 -0.74335022 5.09399739 -2 8 C-2.66 8 -3.32 8 -4 8 C-4.28536621 8.58426758 -4.57073242 9.16853516 -4.86474609 9.77050781 C-5.89479709 11.79339506 -6.99168472 13.72907754 -8.1640625 15.671875 C-8.76347656 16.66767578 -8.76347656 16.66767578 -9.375 17.68359375 C-9.7875 18.36550781 -10.2 19.04742187 -10.625 19.75 C-11.04523438 20.44738281 -11.46546875 21.14476562 -11.8984375 21.86328125 C-12.93095746 23.57632572 -13.96529882 25.28827213 -15 27 C-16.37720855 22.08664575 -15.32784433 18.51333846 -13 14 C-10.0625 11.8125 -10.0625 11.8125 -7 10 C-4.73250274 6.99709822 -3.18833551 4.56500652 -2 1 C-1.34 0.67 -0.68 0.34 0 0 Z " fill="#55074B" transform="translate(190,136)"/>
<path d="M0 0 C4.57043021 4.30881891 7.53660794 9.30926675 10.8125 14.625 C11.42287109 15.59179688 12.03324219 16.55859375 12.66210938 17.5546875 C13.23380859 18.47765625 13.80550781 19.400625 14.39453125 20.3515625 C14.91893799 21.19541504 15.44334473 22.03926758 15.98364258 22.90869141 C16.31904053 23.59882324 16.65443848 24.28895508 17 25 C16.67 25.66 16.34 26.32 16 27 C15.34 25.68 14.68 24.36 14 23 C13.01 23 12.02 23 11 23 C10.8453125 22.0409375 10.8453125 22.0409375 10.6875 21.0625 C10.460625 20.381875 10.23375 19.70125 10 19 C9.01 18.67 8.02 18.34 7 18 C6.67 15.69 6.34 13.38 6 11 C5.34 11 4.68 11 4 11 C3.87625 10.360625 3.7525 9.72125 3.625 9.0625 C3.41875 8.381875 3.2125 7.70125 3 7 C2.34 6.67 1.68 6.34 1 6 C1.33 5.34 1.66 4.68 2 4 C1.01 3.67 0.02 3.34 -1 3 C-0.67 2.01 -0.34 1.02 0 0 Z " fill="#431033" transform="translate(73,161)"/>
<path d="M0 0 C1.14903809 0.11746582 1.14903809 0.11746582 2.32128906 0.23730469 C1.70253906 0.97980469 1.08378906 1.72230469 0.44628906 2.48730469 C-1.62360059 4.97313378 -1.62360059 4.97313378 -2.53027344 6.98730469 C-4.15137922 10.16334866 -6.16160591 13.05509131 -8.17871094 15.98730469 C-8.5821875 16.58929688 -8.98566406 17.19128906 -9.40136719 17.81152344 C-10.44091365 19.32452671 -11.55459936 20.78602631 -12.67871094 22.23730469 C-13.33871094 22.23730469 -13.99871094 22.23730469 -14.67871094 22.23730469 C-13.65716909 17.2534187 -11.01415739 13.30763297 -8.42871094 8.98730469 C-7.95046875 8.14683594 -7.47222656 7.30636719 -6.97949219 6.44042969 C-6.50382813 5.64636719 -6.02816406 4.85230469 -5.53808594 4.03417969 C-5.10979492 3.30553711 -4.68150391 2.57689453 -4.24023438 1.82617188 C-2.67871094 0.23730469 -2.67871094 0.23730469 0 0 Z " fill="#391436" transform="translate(189.6787109375,126.7626953125)"/>
<path d="M0 0 C2.8638918 3.23342622 4.76838349 5.59928637 5 10 C4.01 11.485 4.01 11.485 3 13 C2.01 13 1.02 13 0 13 C-3 8.77777778 -3 8.77777778 -3 6 C-3.99 5.67 -4.98 5.34 -6 5 C-5.67 4.34 -5.34 3.68 -5 3 C-3.02 3.495 -3.02 3.495 -1 4 C-0.67 2.68 -0.34 1.36 0 0 Z " fill="#90075B" transform="translate(109,220)"/>
<path d="M0 0 C4.71679281 4.44473229 7.85956092 9.6825269 11.3125 15.125 C11.97056641 16.13949219 12.62863281 17.15398437 13.30664062 18.19921875 C13.92345703 19.16730469 14.54027344 20.13539062 15.17578125 21.1328125 C15.74208252 22.01855957 16.30838379 22.90430664 16.8918457 23.81689453 C17.25753662 24.53731934 17.62322754 25.25774414 18 26 C17.67 26.66 17.34 27.32 17 28 C14.29039279 25.47103327 12.53369736 23.35496296 11 20 C9.69157812 17.65194059 8.34331057 15.32840499 7 13 C6.34 13 5.68 13 5 13 C4.32591692 11.73308493 3.66099503 10.46129251 3 9.1875 C2.443125 8.12595703 2.443125 8.12595703 1.875 7.04296875 C1 5 1 5 1 2 C0.34 1.67 -0.32 1.34 -1 1 C-0.67 0.67 -0.34 0.34 0 0 Z " fill="#27162E" transform="translate(29,92)"/>
<path d="M0 0 C0.66 0.33 1.32 0.66 2 1 C1.34 1.66 0.68 2.32 0 3 C0 3.99 0 4.98 0 6 C-1.375 8.1875 -1.375 8.1875 -3 10 C-3.66 10 -4.32 10 -5 10 C-5.1546875 10.8353125 -5.1546875 10.8353125 -5.3125 11.6875 C-6.59588203 16.00433047 -9.26115822 19.478632 -12 23 C-12.99 22.67 -13.98 22.34 -15 22 C-13.43898481 19.64483728 -11.87623051 17.29085896 -10.3125 14.9375 C-9.87744141 14.28072266 -9.44238281 13.62394531 -8.99414062 12.94726562 C-6.08100865 8.56677829 -3.07871732 4.26582634 0 0 Z " fill="#CB127A" transform="translate(167,175)"/>
<path d="M0 0 C0.33 0.99 0.66 1.98 1 3 C0.55398437 3.39445312 0.10796875 3.78890625 -0.3515625 4.1953125 C-2.26187852 6.28670113 -3.2082158 8.29867783 -4.375 10.875 C-6.38935353 15.04325564 -8.46759776 17.93238753 -12 21 C-12.8971875 21.8971875 -12.8971875 21.8971875 -13.8125 22.8125 C-14.204375 23.204375 -14.59625 23.59625 -15 24 C-15.33 23.34 -15.66 22.68 -16 22 C-15.34 22 -14.68 22 -14 22 C-13.896875 21.236875 -13.79375 20.47375 -13.6875 19.6875 C-12.95288806 16.81583516 -12.3283935 15.76957906 -10 14 C-9.34 14 -8.68 14 -8 14 C-7.79375 12.989375 -7.5875 11.97875 -7.375 10.9375 C-6.10199099 6.35092343 -3.25025026 3.3626803 0 0 Z " fill="#5D165D" transform="translate(206,112)"/>
<path d="M0 0 C0.66 0 1.32 0 2 0 C0.67419796 4.64030713 -1.23459222 8.06138892 -4 12 C-4.515625 12.9075 -5.03125 13.815 -5.5625 14.75 C-7 17 -7 17 -10 19 C-10.33 19.99 -10.66 20.98 -11 22 C-11.66 22 -12.32 22 -13 22 C-11.28914979 16.91836753 -8.39728722 12.65321531 -5.5 8.1875 C-4.75169922 7.00510742 -4.75169922 7.00510742 -3.98828125 5.79882812 C-3.26705078 4.68217773 -3.26705078 4.68217773 -2.53125 3.54296875 C-2.09361328 2.86258545 -1.65597656 2.18220215 -1.20507812 1.48120117 C-0.80740234 0.99240479 -0.40972656 0.5036084 0 0 Z " fill="#D61688" transform="translate(152,198)"/>
<path d="M0 0 C1.26446047 3.7933814 0.77937308 6.9868093 0.3125 10.875 C0.22436035 11.62644287 0.1362207 12.37788574 0.04541016 13.15209961 C-0.85163999 20.05997106 -2.64843158 26.43615611 -5 33 C-5.33 33 -5.66 33 -6 33 C-6.20713046 27.8016936 -5.52946679 23.60537837 -4.0625 18.625 C-2.47371297 13.06321328 -1.48830299 7.76197531 -1 2 C-0.67 1.34 -0.34 0.68 0 0 Z " fill="#C9147F" transform="translate(176,181)"/>
<path d="M0 0 C2.31 0 4.62 0 7 0 C8.28571429 7.42857143 8.28571429 7.42857143 7 11 C6.34 11 5.68 11 5 11 C4.16151196 9.54462432 3.32936066 8.08559627 2.5 6.625 C1.80390625 5.40683594 1.80390625 5.40683594 1.09375 4.1640625 C0 2 0 2 0 0 Z " fill="#0E2766" transform="translate(96,120)"/>
<path d="M0 0 C1.16758522 3.50275566 0.87504393 3.86431069 -0.6875 7.01953125 C-1.24050781 8.18258789 -1.24050781 8.18258789 -1.8046875 9.36914062 C-2.5969399 10.98859773 -3.39376729 12.60582528 -4.1953125 14.22070312 C-6.40383796 18.88872285 -7.60192805 21.81876397 -6 27 C-7.32 27.33 -8.64 27.66 -10 28 C-9.88648483 26.18674449 -9.75887039 24.37436643 -9.625 22.5625 C-9.55539063 21.55316406 -9.48578125 20.54382813 -9.4140625 19.50390625 C-9.20910156 18.26447266 -9.20910156 18.26447266 -9 17 C-8.34 16.67 -7.68 16.34 -7 16 C-6.23381583 14.12030704 -6.23381583 14.12030704 -5.625 11.875 C-4.25573395 7.48632676 -2.40995151 3.90578348 0 0 Z " fill="#221A56" transform="translate(17,37)"/>
<path d="M0 0 C0.66 0.99 1.32 1.98 2 3 C0.8553125 2.7525 0.8553125 2.7525 -0.3125 2.5 C-3.30369741 1.94349816 -5.23659881 1.61829941 -8 3 C-10 4 -10 4 -13 4 C-13 4.66 -13 5.32 -13 6 C-15.64 6.33 -18.28 6.66 -21 7 C-21 6.34 -21 5.68 -21 5 C-18.89615302 4.18667257 -16.79191143 3.37436583 -14.6875 2.5625 C-13.51574219 2.11003906 -12.34398438 1.65757813 -11.13671875 1.19140625 C-4.41967396 -1.35989968 -4.41967396 -1.35989968 0 0 Z " fill="#0D4F9E" transform="translate(77,13)"/>
<path d="M0 0 C0 1.65 0 3.3 0 5 C0.99 5.33 1.98 5.66 3 6 C3 7.98 3 9.96 3 12 C3.66 12 4.32 12 5 12 C6.5625 14.8125 6.5625 14.8125 8 18 C7.67 18.99 7.34 19.98 7 21 C5.72593712 18.96028888 4.45570798 16.91834736 3.1875 14.875 C2.83107422 14.30523437 2.47464844 13.73546875 2.10742188 13.1484375 C-0.13935199 9.52061915 -2.14824719 5.84370141 -4 2 C-1 0 -1 0 0 0 Z " fill="#102862" transform="translate(54,41)"/>
<path d="M0 0 C0.66 0 1.32 0 2 0 C0.94035767 3.27525811 -0.39278645 5.61381469 -2.625 8.1875 C-5.21506027 10.64115354 -5.21506027 10.64115354 -5 13 C-7.3125 14.6875 -7.3125 14.6875 -10 16 C-10.99 15.67 -11.98 15.34 -13 15 C-12.34644531 14.38125 -12.34644531 14.38125 -11.6796875 13.75 C-7.73779393 9.92755775 -4.38917589 6.01944025 -1.26171875 1.50390625 C-0.84535156 1.00761719 -0.42898437 0.51132813 0 0 Z " fill="#9F1271" transform="translate(213,187)"/>
<path d="M0 0 C0.66 0 1.32 0 2 0 C0.65072455 4.53847198 -1.19159348 8.31932246 -3.625 12.375 C-4.25664062 13.43460938 -4.88828125 14.49421875 -5.5390625 15.5859375 C-6.02117187 16.38257813 -6.50328125 17.17921875 -7 18 C-7.99 17.34 -8.98 16.68 -10 16 C-8.8143617 14.10297872 -7.62800001 12.2064773 -6.4375 10.3125 C-5.48492742 8.78010063 -4.54715371 7.23839487 -3.625 5.6875 C-3.191875 4.965625 -2.75875 4.24375 -2.3125 3.5 C-1.91675781 2.8296875 -1.52101562 2.159375 -1.11328125 1.46875 C-0.74589844 0.9840625 -0.37851563 0.499375 0 0 Z " fill="#0F2963" transform="translate(143,118)"/>
<path d="M0 0 C-4.97361654 1.75734451 -9.7415998 3.32584613 -15 4 C-15 4.99 -15 5.98 -15 7 C-16.32 6.34 -17.64 5.68 -19 5 C-18.67 4.01 -18.34 3.02 -18 2 C-15.50965347 1.05794767 -13.19103147 0.33377744 -10.625 -0.3125 C-9.93921875 -0.50650391 -9.2534375 -0.70050781 -8.546875 -0.90039062 C-3.37901949 -2.25267966 -3.37901949 -2.25267966 0 0 Z " fill="#0887DA" transform="translate(95,8)"/>
<path d="M0 0 C0.66 0.33 1.32 0.66 2 1 C0.04959968 4.15081787 -1.91162565 7.29475319 -3.875 10.4375 C-4.70837891 11.78424805 -4.70837891 11.78424805 -5.55859375 13.15820312 C-6.09355469 14.01220703 -6.62851563 14.86621094 -7.1796875 15.74609375 C-7.91807861 16.93223267 -7.91807861 16.93223267 -8.67138672 18.14233398 C-10 20 -10 20 -12 21 C-11.54814232 16.02956556 -10.47053202 14.42095299 -7 11 C-5.70408475 9.11407456 -4.4544336 7.1956235 -3.25 5.25 C-2.32960937 3.77273437 -2.32960937 3.77273437 -1.390625 2.265625 C-0.93171875 1.51796875 -0.4728125 0.7703125 0 0 Z " fill="#8E0259" transform="translate(145,206)"/>
<path d="M0 0 C0.66 0.66 1.32 1.32 2 2 C1.566875 2.37125 1.13375 2.7425 0.6875 3.125 C-1.47091676 5.52324084 -2.60633711 8.09653565 -4 11 C-5.95160441 14.56379937 -8.02379282 17.22904849 -11 20 C-9.43865857 14.20073182 -8.21856336 10.21856336 -4 6 C-2.63988391 4.01811655 -1.30208796 2.02048131 0 0 Z " fill="#411150" transform="translate(219,91)"/>
<path d="M0 0 C1 3 1 3 0.4375 5.25 C-2.09378194 10.09245241 -5.45739664 13.97159776 -10 17 C-8.51364884 12.78345644 -6.38750841 9.37521395 -3.875 5.6875 C-3.15054688 4.61886719 -2.42609375 3.55023438 -1.6796875 2.44921875 C-0.84824219 1.23685547 -0.84824219 1.23685547 0 0 Z " fill="#23132C" transform="translate(208,95)"/>
<path d="M0 0 C0.66 0.66 1.32 1.32 2 2 C1.01 3.485 1.01 3.485 0 5 C-0.66 5 -1.32 5 -2 5 C-1.67 6.32 -1.34 7.64 -1 9 C-1.804375 9.61875 -2.60875 10.2375 -3.4375 10.875 C-6.03874519 12.74164041 -6.03874519 12.74164041 -7 15 C-7.66 14.67 -8.32 14.34 -9 14 C-6.03 9.38 -3.06 4.76 0 0 Z " fill="#5C0F3C" transform="translate(149,188)"/>
<path d="M0 0 C0.33 0 0.66 0 1 0 C0.71601983 6.67353409 -2.07805532 10.71077185 -6 16 C-7 13 -7 13 -6.07421875 10.5546875 C-5.61660156 9.67039062 -5.15898437 8.78609375 -4.6875 7.875 C-4.23761719 6.98554687 -3.78773438 6.09609375 -3.32421875 5.1796875 C-2 3 -2 3 0 2 C0 1.34 0 0.68 0 0 Z " fill="#0C3F7F" transform="translate(182,51)"/>
<path d="M0 0 C0.33 0 0.66 0 1 0 C1.33 1.65 1.66 3.3 2 5 C3.32 5.33 4.64 5.66 6 6 C4.71086513 6.67154933 3.41859796 7.33708859 2.125 8 C1.40570313 8.37125 0.68640625 8.7425 -0.0546875 9.125 C-2 10 -2 10 -4 10 C-2.8905928 6.51329166 -1.73662334 3.22515763 0 0 Z " fill="#7F0456" transform="translate(169,216)"/>
<path d="M0 0 C0.33 0.66 0.66 1.32 1 2 C1.66 2 2.32 2 3 2 C3.268125 2.763125 3.53625 3.52625 3.8125 4.3125 C4.78639483 6.97790291 4.78639483 6.97790291 6.5 8.4375 C8.62717155 10.6533037 9.15956851 13.09081407 10 16 C8 14.625 8 14.625 6 13 C6 12.34 6 11.68 6 11 C5.34 11 4.68 11 4 11 C3.32591692 9.73308493 2.66099503 8.46129251 2 7.1875 C1.62875 6.47980469 1.2575 5.77210938 0.875 5.04296875 C0 3 0 3 0 0 Z " fill="#470A48" transform="translate(44,128)"/>
<path d="M0 0 C0.66 0 1.32 0 2 0 C4.9689841 2.9689841 5.24830209 6.46037819 6.21875 10.46875 C6.82682808 13.13824211 6.82682808 13.13824211 9 15 C8.67 15.99 8.34 16.98 8 18 C5.39667844 14.83936913 3.85961424 11.6568348 2.3125 7.875 C1.87550781 6.82054687 1.43851563 5.76609375 0.98828125 4.6796875 C0 2 0 2 0 0 Z " fill="#191459" transform="translate(223,40)"/>
<path d="M0 0 C0.66 0.66 1.32 1.32 2 2 C-0.30718811 6.28477792 -2.32966073 9.72291137 -6 13 C-5.49890261 7.73847744 -3.79035827 3.79035827 0 0 Z " fill="#AA177C" transform="translate(182,151)"/>
<path d="M0 0 C0.99 0.33 1.98 0.66 3 1 C1.42210402 2.15330947 -0.1625482 3.29737927 -1.75 4.4375 C-2.63171875 5.07558594 -3.5134375 5.71367187 -4.421875 6.37109375 C-6.72699125 7.8275081 -8.34349572 8.55931821 -11 9 C-11.33 8.01 -11.66 7.02 -12 6 C-11.38511719 5.73445312 -10.77023438 5.46890625 -10.13671875 5.1953125 C-9.32847656 4.84210938 -8.52023438 4.48890625 -7.6875 4.125 C-6.88699219 3.77695313 -6.08648437 3.42890625 -5.26171875 3.0703125 C-2.8038166 1.97428106 -2.8038166 1.97428106 0 0 Z " fill="#C81481" transform="translate(176,220)"/>
<path d="M0 0 C0.33 0 0.66 0 1 0 C1.4375 2.5 1.4375 2.5 1 6 C-1.08463182 8.91534977 -3.47505363 11.46217125 -6 14 C-6.66 13.67 -7.32 13.34 -8 13 C-6.69181533 10.83061859 -5.37874076 8.6644848 -4.0625 6.5 C-3.68931641 5.87996094 -3.31613281 5.25992188 -2.93164062 4.62109375 C-1.9818016 3.06370003 -0.99386689 1.5296725 0 0 Z " fill="#9C1167" transform="translate(175,161)"/>
<path d="M0 0 C3.78699616 3.36621881 6.8272631 7.41641804 9 12 C8.67 12.66 8.34 13.32 8 14 C5 13 5 13 3.83203125 11.2578125 C3.49558594 10.55398437 3.15914062 9.85015625 2.8125 9.125 C2.46832031 8.42632812 2.12414062 7.72765625 1.76953125 7.0078125 C1 5 1 5 1 2 C0.34 1.67 -0.32 1.34 -1 1 C-0.67 0.67 -0.34 0.34 0 0 Z " fill="#1D0F27" transform="translate(29,92)"/>
<path d="M0 0 C1.98 0 3.96 0 6 0 C6.33 0.66 6.66 1.32 7 2 C8.85240164 2.83047008 8.85240164 2.83047008 11 3.5 C13.1875 4.21875 13.1875 4.21875 15 5 C15.33 5.66 15.66 6.32 16 7 C7.20241692 5.81570997 7.20241692 5.81570997 5 5 C4.34 4.01 3.68 3.02 3 2 C2.01 1.34 1.02 0.68 0 0 Z " fill="#0A4CA5" transform="translate(170,14)"/>
<path d="M0 0 C6.875 3.75 6.875 3.75 8 6 C10.02463255 6.65213292 10.02463255 6.65213292 12 7 C12 7.66 12 8.32 12 9 C12.66 9.33 13.32 9.66 14 10 C12.68 10 11.36 10 10 10 C10 9.34 10 8.68 10 8 C9.29875 7.938125 8.5975 7.87625 7.875 7.8125 C3.9667267 6.70798798 1.99642752 4.71769008 -1 2 C-0.67 1.34 -0.34 0.68 0 0 Z " fill="#B21078" transform="translate(48,209)"/>
<path d="M0 0 C0.66 0.33 1.32 0.66 2 1 C1.34 1.66 0.68 2.32 0 3 C0 3.99 0 4.98 0 6 C-4.13043478 10.56521739 -4.13043478 10.56521739 -7 12 C-5.44298069 7.32894208 -2.91552627 3.91294315 0 0 Z " fill="#B51272" transform="translate(167,175)"/>
<path d="M0 0 C0.99 0.33 1.98 0.66 3 1 C0.525 5.455 0.525 5.455 -2 10 C-2.66 9.67 -3.32 9.34 -4 9 C-4 7.02 -4 5.04 -4 3 C-3.01 2.67 -2.02 2.34 -1 2 C-0.67 1.34 -0.34 0.68 0 0 Z " fill="#113A7F" transform="translate(148,109)"/>
<path d="M0 0 C5.91260345 -0.25706972 11.23918159 0.7017874 17 2 C17 2.33 17 2.66 17 3 C15.10448978 3.05441656 13.2085208 3.09298035 11.3125 3.125 C10.25675781 3.14820313 9.20101562 3.17140625 8.11328125 3.1953125 C4.97748141 2.99858729 2.82354627 2.33057654 0 1 C0 0.67 0 0.34 0 0 Z " fill="#0283E8" transform="translate(123,3)"/>
<path d="M0 0 C0.66 0 1.32 0 2 0 C1.55966813 5.19591612 1.11696661 8.66335081 -2 13 C-3.18414294 9.44757118 -2.69535532 8.30169438 -1.5625 4.8125 C-1.27503906 3.91144531 -0.98757812 3.01039063 -0.69140625 2.08203125 C-0.46324219 1.39496094 -0.23507813 0.70789063 0 0 Z " fill="#7A0654" transform="translate(174,202)"/>
<path d="M0 0 C4.08288689 1.3609623 4.88685817 3.47953322 7.1875 7.0625 C7.90292969 8.16722656 8.61835937 9.27195313 9.35546875 10.41015625 C9.89816406 11.26480469 10.44085938 12.11945313 11 13 C10.67 13.66 10.34 14.32 10 15 C6.15383526 10.91193811 3.36410449 7.59282842 2 2 C1.34 2 0.68 2 0 2 C0 1.34 0 0.68 0 0 Z " fill="#BF167A" transform="translate(85,197)"/>
<path d="M0 0 C0.33 0 0.66 0 1 0 C1.25 3.3125 1.25 3.3125 1 7 C-1 8.9375 -1 8.9375 -3 10 C-3.75 8.375 -3.75 8.375 -4 6 C-2.125 2.75 -2.125 2.75 0 0 Z " fill="#3B0A31" transform="translate(173,150)"/>
<path d="M0 0 C3.35111834 2.23407889 4.81553956 3.26215824 5.8125 7.25 C5.874375 8.1575 5.93625 9.065 6 10 C5.01 10.495 5.01 10.495 4 11 C2.35 7.7 0.7 4.4 -1 1 C-0.67 0.67 -0.34 0.34 0 0 Z " fill="#0E1F58" transform="translate(103,130)"/>
<path d="M0 0 C0.66 0.33 1.32 0.66 2 1 C1.49477778 5.37859255 -1.17827222 7.81651224 -4 11 C-4.66 10.67 -5.32 10.34 -6 10 C-4.02 6.7 -2.04 3.4 0 0 Z " fill="#D9ECF7" transform="translate(178,63)"/>
<path d="M0 0 C3.29804771 0.56862892 4.80019989 1.50022714 7 4 C7.66 4.66 8.32 5.32 9 6 C9 7.32 9 8.64 9 10 C8.34 10 7.68 10 7 10 C5.2734375 8.06640625 5.2734375 8.06640625 3.375 5.5625 C2.74335937 4.73878906 2.11171875 3.91507813 1.4609375 3.06640625 C0 1 0 1 0 0 Z " fill="#0AB2F0" transform="translate(96,28)"/>
<path d="M0 0 C-0.54269531 0.33773437 -1.08539063 0.67546875 -1.64453125 1.0234375 C-2.71767578 1.69246094 -2.71767578 1.69246094 -3.8125 2.375 C-4.87404297 3.03628906 -4.87404297 3.03628906 -5.95703125 3.7109375 C-7.65432039 4.78188476 -9.33014358 5.88676239 -11 7 C-11.99 6.67 -12.98 6.34 -14 6 C-12.73299277 5.0158875 -11.4612381 4.03788503 -10.1875 3.0625 C-9.47980469 2.51722656 -8.77210938 1.97195312 -8.04296875 1.41015625 C-4.92775218 -0.74011752 -3.65000286 -1.21666762 0 0 Z " fill="#BE147B" transform="translate(193,213)"/>
<path d="M0 0 C4.37859255 0.50522222 6.81651224 3.17827222 10 6 C7 7 7 7 4.4375 5.8125 C1.97307714 3.97998043 1.07175875 2.82554579 0 0 Z " fill="#041C57" transform="translate(37,18)"/>
<path d="M0 0 C0.33 0 0.66 0 1 0 C0.49540386 4.28906722 -0.05649073 8.11298145 -2 12 C-2.99 12.495 -2.99 12.495 -4 13 C-4.63934602 7.88523181 -2.40533547 4.32745622 0 0 Z " fill="#560C57" transform="translate(233,146)"/>
<path d="M0 0 C0.33 0 0.66 0 1 0 C1.33 3.63 1.66 7.26 2 11 C1.01 11.495 1.01 11.495 0 12 C-0.33 10.68 -0.66 9.36 -1 8 C-1.66 8 -2.32 8 -3 8 C-3 6.35 -3 4.7 -3 3 C-2.01 2.67 -1.02 2.34 0 2 C0 1.34 0 0.68 0 0 Z " fill="#26184D" transform="translate(232,60)"/>
<path d="M0 0 C2.97 0.495 2.97 0.495 6 1 C5.34 2.98 4.68 4.96 4 7 C3.34 7 2.68 7 2 7 C1.34 4.69 0.68 2.38 0 0 Z " fill="#0A1042" transform="translate(117,154)"/>
<path d="M0 0 C0.66 0 1.32 0 2 0 C0.74809374 4.48599743 -0.79385533 7.59347128 -4 11 C-4.66 11 -5.32 11 -6 11 C-6 10.34 -6 9.68 -6 9 C-5.34 9 -4.68 9 -4 9 C-3.71125 8.2575 -3.4225 7.515 -3.125 6.75 C-2.17697356 4.43260203 -1.15154089 2.22082885 0 0 Z " fill="#131E54" transform="translate(133,135)"/>
<path d="M0 0 C1.98 0 3.96 0 6 0 C6.33 1.32 6.66 2.64 7 4 C5.35 4.33 3.7 4.66 2 5 C1.34 3.35 0.68 1.7 0 0 Z " fill="#0D3278" transform="translate(97,120)"/>
<path d="M0 0 C0.33 0.99 0.66 1.98 1 3 C-0.1196986 4.00593243 -1.2459412 5.0045849 -2.375 6 C-3.00148437 6.556875 -3.62796875 7.11375 -4.2734375 7.6875 C-6 9 -6 9 -8 9 C-7.67 7.68 -7.34 6.36 -7 5 C-6.401875 4.9175 -5.80375 4.835 -5.1875 4.75 C-2.4033704 3.79544128 -1.56688858 2.42867729 0 0 Z " fill="#0F469D" transform="translate(195,20)"/>
<path d="M0 0 C1 3 1 3 -0.4375 6.1875 C-1.2109375 7.5796875 -1.2109375 7.5796875 -2 9 C-5 5.25 -5 5.25 -5 3 C-2.5 1.375 -2.5 1.375 0 0 Z " fill="#15236A" transform="translate(24,21)"/>
<path d="M0 0 C0.556875 0.28875 1.11375 0.5775 1.6875 0.875 C4.08494645 2.0413253 6.51596939 3.0339881 9 4 C9 4.99 9 5.98 9 7 C6 7 6 7 3.9375 5.0625 C3.298125 4.381875 2.65875 3.70125 2 3 C1.34 2.67 0.68 2.34 0 2 C0 1.34 0 0.68 0 0 Z " fill="#900B69" transform="translate(39,202)"/>
<path d="M0 0 C3.65392651 1.2179755 3.95831699 2.14396506 5.75 5.4375 C6.19859375 6.24058594 6.6471875 7.04367188 7.109375 7.87109375 C7.40328125 8.57363281 7.6971875 9.27617187 8 10 C7.67 10.66 7.34 11.32 7 12 C5.83061933 10.18924982 4.66456267 8.37635257 3.5 6.5625 C2.8503125 5.55316406 2.200625 4.54382813 1.53125 3.50390625 C0 1 0 1 0 0 Z " fill="#5A0348" transform="translate(69,168)"/>
<path d="M0 0 C1.65 0.33 3.3 0.66 5 1 C5 1.99 5 2.98 5 4 C3.35 4 1.7 4 0 4 C0 2.68 0 1.36 0 0 Z " fill="#7F054B" transform="translate(113,230)"/>
<path d="M0 0 C0.66 0 1.32 0 2 0 C4.6020866 3.49655387 6.54997977 6.89160936 8 11 C5 10 5 10 3.61328125 7.71484375 C3.18402344 6.79832031 2.75476562 5.88179687 2.3125 4.9375 C1.87550781 4.01839844 1.43851563 3.09929688 0.98828125 2.15234375 C0.49908203 1.08693359 0.49908203 1.08693359 0 0 Z " fill="#050C3C" transform="translate(32,12)"/>
<path d="M0 0 C0.66 0.99 1.32 1.98 2 3 C1.21625 2.814375 0.4325 2.62875 -0.375 2.4375 C-2.97089775 1.74037734 -2.97089775 1.74037734 -5 3 C-5 2.34 -5 1.68 -5 1 C-5.99 0.67 -6.98 0.34 -8 0 C-4.67212881 -1.1092904 -3.3006216 -1.01557588 0 0 Z " fill="#085CA9" transform="translate(77,13)"/>
<path d="M0 0 C0.99 0.33 1.98 0.66 3 1 C2.21718695 2.33855056 1.42348123 3.67073644 0.625 5 C0.18414062 5.7425 -0.25671875 6.485 -0.7109375 7.25 C-1.34902344 8.11625 -1.34902344 8.11625 -2 9 C-2.66 9 -3.32 9 -4 9 C-3.71125 8.443125 -3.4225 7.88625 -3.125 7.3125 C-1.9586747 4.91505355 -0.9660119 2.48403061 0 0 Z " fill="#6A0345" transform="translate(165,173)"/>
<path d="M0 0 C0.66 0.33 1.32 0.66 2 1 C0.02 3.97 -1.96 6.94 -4 10 C-4.66 9.34 -5.32 8.68 -6 8 C-5.34 8 -4.68 8 -4 8 C-3.896875 7.236875 -3.79375 6.47375 -3.6875 5.6875 C-2.95635961 2.82940576 -2.23048087 1.84257115 0 0 Z " fill="#460845" transform="translate(196,126)"/>
<path d="M0 0 C0.66 0.66 1.32 1.32 2 2 C1.3503125 2.5878125 1.3503125 2.5878125 0.6875 3.1875 C-1.26366224 5.28319278 -2.59010162 7.51589333 -4 10 C-4.99 9.67 -5.98 9.34 -7 9 C-6.5875 8.62875 -6.175 8.2575 -5.75 7.875 C-3.49187988 5.45558559 -1.78960793 2.77697782 0 0 Z " fill="#330D45" transform="translate(219,91)"/>
<path d="M0 0 C0.66 0 1.32 0 2 0 C1.38461538 6.52307692 1.38461538 6.52307692 -0.5625 8.9375 C-1.036875 9.288125 -1.51125 9.63875 -2 10 C-1.46274105 6.62294375 -0.88935377 3.303314 0 0 Z " fill="#0F3177" transform="translate(185,44)"/>
<path d="M0 0 C2.74277578 3.19990508 4.6302836 6.00499382 6 10 C5.01 9.67 4.02 9.34 3 9 C2.67 7.35 2.34 5.7 2 4 C1.34 4 0.68 4 0 4 C-0.33 3.01 -0.66 2.02 -1 1 C-0.67 0.67 -0.34 0.34 0 0 Z " fill="#D71488" transform="translate(105,226)"/>
<path d="M0 0 C0.33 1.32 0.66 2.64 1 4 C0.34 4 -0.32 4 -1 4 C-1.28875 4.639375 -1.5775 5.27875 -1.875 5.9375 C-3 8 -3 8 -5 9 C-4.67 7.68 -4.34 6.36 -4 5 C-3.34 5 -2.68 5 -2 5 C-1.7834375 4.0409375 -1.7834375 4.0409375 -1.5625 3.0625 C-1 1 -1 1 0 0 Z " fill="#EC1098" transform="translate(143,215)"/>
<path d="M0 0 C1.48199902 0.44909061 2.96055236 0.90956564 4.4375 1.375 C5.26121094 1.63023437 6.08492188 1.88546875 6.93359375 2.1484375 C9 3 9 3 10 5 C8.51793505 4.745504 7.03931385 4.47088238 5.5625 4.1875 C4.73878906 4.03667969 3.91507812 3.88585937 3.06640625 3.73046875 C2.38449219 3.48941406 1.70257813 3.24835938 1 3 C0.67 2.01 0.34 1.02 0 0 Z " fill="#B50A76" transform="translate(62,219)"/>
<path d="M0 0 C0.33 0.99 0.66 1.98 1 3 C-0.40445835 5.2636564 -2.1967913 7.0208685 -4 9 C-4.66 8.67 -5.32 8.34 -6 8 C-4.7260411 5.96166576 -3.38938077 3.96147874 -2 2 C-1.34 2 -0.68 2 0 2 C0 1.34 0 0.68 0 0 Z " fill="#8F1874" transform="translate(188,142)"/>
<path d="M0 0 C1.2065625 0.0309375 1.2065625 0.0309375 2.4375 0.0625 C1.1175 2.7025 -0.2025 5.3425 -1.5625 8.0625 C-1.8925 8.0625 -2.2225 8.0625 -2.5625 8.0625 C-2.94313221 5.7364143 -3.27519945 3.40194736 -3.5625 1.0625 C-2.5625 0.0625 -2.5625 0.0625 0 0 Z " fill="#4A113F" transform="translate(176.5625,147.9375)"/>
<path d="M0 0 C0.33 0.99 0.66 1.98 1 3 C-1.31 4.98 -3.62 6.96 -6 9 C-4.68775452 5.06326356 -3.08089673 2.77280706 0 0 Z " fill="#400B4B" transform="translate(206,112)"/>
<path d="M0 0 C1.32 0.33 2.64 0.66 4 1 C4 1.66 4 2.32 4 3 C5.32 3.33 6.64 3.66 8 4 C7.67 4.99 7.34 5.98 7 7 C5.83040013 6.02433888 4.66438823 5.044375 3.5 4.0625 C2.8503125 3.51722656 2.200625 2.97195312 1.53125 2.41015625 C1.0259375 1.94480469 0.520625 1.47945312 0 1 C0 0.67 0 0.34 0 0 Z " fill="#0CABEB" transform="translate(88,21)"/>
<path d="M0 0 C0.66 0 1.32 0 2 0 C0.25 5.75 0.25 5.75 -2 8 C-3 5 -3 5 -1.6875 2.3125 C-1.130625 1.549375 -0.57375 0.78625 0 0 Z " fill="#15316E" transform="translate(143,118)"/>
<path d="M0 0 C0.33 0.66 0.66 1.32 1 2 C-0.98 4.97 -0.98 4.97 -3 8 C-3.66 7.67 -4.32 7.34 -5 7 C-4.34 5.68 -3.68 4.36 -3 3 C-2.34 3 -1.68 3 -1 3 C-0.67 2.01 -0.34 1.02 0 0 Z " fill="#08236B" transform="translate(206,13)"/>
<path d="M0 0 C1.65 0 3.3 0 5 0 C4.25 4.75 4.25 4.75 2 7 C2 5.02 2 3.04 2 1 C1.34 0.67 0.68 0.34 0 0 Z " fill="#192B72" transform="translate(24,12)"/>
</svg>
